<svg xmlns="http://www.w3.org/2000/svg" width="482" height="466" fill="none" viewBox="0 0 482 466"><path fill="#FFDC0B" d="M240.049 197.001c.426-1.281 2.277-1.281 2.702 0l8.375 25.247c.19.573.736.961 1.351.961l27.1.001c1.376 0 1.948 1.724.835 2.516l-19.153 13.632c-1.113.793-.541 2.517.835 2.517h11.028c1.376.001 1.948 1.725.835 2.517l-12.508 8.903a.03.03 0 0 0-.012.036.032.032 0 0 0 .032.023l7.899.001c1.376 0 1.948 1.724.835 2.516l-5.576 3.969a1.375 1.375 0 0 0-.516 1.555l2.235 6.738c.425 1.281-1.073 2.347-2.186 1.555l-5.851-4.164a1.444 1.444 0 0 0-1.669 0l-5.592 3.979c-1.113.792-2.61-.274-2.185-1.555l2.448-7.382a.023.023 0 0 0-.009-.028.024.024 0 0 0-.03 0l-12.393 8.818c-1.113.792-2.61-.274-2.185-1.555l4.732-14.268a.026.026 0 0 0-.01-.03.027.027 0 0 0-.032 0l-22.744 16.185c-1.113.792-2.611-.274-2.186-1.555l8.374-25.247a1.377 1.377 0 0 0-.516-1.556l-21.924-15.604c-1.113-.792-.541-2.516.835-2.516l27.1-.001c.616 0 1.161-.388 1.351-.961l8.375-25.247Z"/><g filter="url(#a)" opacity="0.45"><path fill="#FFDC0B" d="M240.049 196.961c.426-1.281 2.277-1.281 2.702 0l8.375 25.247c.19.573.736.961 1.351.961l27.1.001c1.376 0 1.948 1.724.835 2.516l-19.153 13.632c-1.113.793-.541 2.517.835 2.517h11.028c1.376.001 1.948 1.725.835 2.517l-12.508 8.903a.03.03 0 0 0-.012.036.032.032 0 0 0 .032.023l7.899.001c1.376 0 1.948 1.724.835 2.516l-5.576 3.969a1.375 1.375 0 0 0-.516 1.555l2.235 6.738c.425 1.281-1.073 2.347-2.186 1.555l-5.851-4.164a1.444 1.444 0 0 0-1.669 0l-5.592 3.979c-1.113.792-2.61-.274-2.185-1.555l2.448-7.382a.023.023 0 0 0-.009-.028.024.024 0 0 0-.03 0l-12.393 8.818c-1.113.792-2.61-.274-2.185-1.555l4.732-14.268a.026.026 0 0 0-.01-.03.027.027 0 0 0-.032 0l-22.744 16.185c-1.113.792-2.611-.274-2.186-1.555l8.374-25.247a1.377 1.377 0 0 0-.516-1.556l-21.924-15.604c-1.113-.792-.541-2.516.835-2.516l27.1-.001c.616 0 1.161-.388 1.351-.961l8.375-25.247Z"/></g><g filter="url(#b)" opacity="0.15"><path fill="#FFDC0B" d="M236.873 122.939c1.299-3.919 6.955-3.919 8.254 0l25.592 77.187c.581 1.752 2.247 2.939 4.127 2.939l82.806.003c4.204 0 5.952 5.272 2.551 7.694L301.68 252.44c-3.401 2.422-1.653 7.694 2.55 7.694l33.699.002c4.204 0 5.952 5.272 2.551 7.694l-38.22 27.218a.1.1 0 0 0-.037.113.103.103 0 0 0 .098.069l24.137.001c4.203 0 5.951 5.273 2.55 7.694l-17.037 12.134c-1.521 1.083-2.158 3.002-1.577 4.755l6.829 20.599c1.299 3.918-3.277 7.177-6.678 4.755l-17.878-12.73a4.412 4.412 0 0 0-5.102 0l-17.084 12.165c-3.401 2.422-7.977-.837-6.678-4.755l7.48-22.57a.076.076 0 0 0-.028-.086.081.081 0 0 0-.092 0l-37.865 26.961c-3.401 2.422-7.977-.837-6.678-4.755l14.459-43.622a.08.08 0 0 0-.03-.091.084.084 0 0 0-.098 0l-69.496 49.484c-3.401 2.421-7.977-.837-6.678-4.756l25.586-77.189c.581-1.752-.056-3.672-1.577-4.755l-66.989-47.707c-3.401-2.422-1.653-7.694 2.551-7.694l82.806-.003c1.88 0 3.546-1.187 4.127-2.939l25.592-77.187Z"/></g><defs><filter id="a" width="135.2" height="129.92" x="173.8" y="168" color-interpolation-filters="sRGB" filterUnits="userSpaceOnUse"><feFlood flood-opacity="0" result="BackgroundImageFix"/><feBlend in="SourceGraphic" in2="BackgroundImageFix" result="shape"/><feGaussianBlur result="effect1_foregroundBlur_803_443" stdDeviation="14"/></filter><filter id="b" width="482" height="466" x="0.00012207" y="0" color-interpolation-filters="sRGB" filterUnits="userSpaceOnUse"><feFlood flood-opacity="0" result="BackgroundImageFix"/><feBlend in="SourceGraphic" in2="BackgroundImageFix" result="shape"/><feGaussianBlur result="effect1_foregroundBlur_803_443" stdDeviation="60"/></filter></defs></svg>