<svg xmlns="http://www.w3.org/2000/svg" width="108" height="101" fill="none" viewBox="0 0 108 101"><path fill="#FFDC0B" d="M52.158 1.313c.58-1.75 3.104-1.75 3.684 0l11.421 34.495a1.933 1.933 0 0 0 1.842 1.314l36.955.001c1.876 0 2.656 2.356 1.138 3.439L81.08 59.188c-1.517 1.082-.737 3.438 1.139 3.438h15.039c1.876.001 2.656 2.357 1.138 3.44L81.339 78.228a.045.045 0 0 0-.016.05.046.046 0 0 0 .043.032h10.772c1.876 0 2.656 2.356 1.138 3.439l-7.603 5.422a1.881 1.881 0 0 0-.704 2.125l3.048 9.206c.58 1.751-1.463 3.207-2.98 2.125l-7.98-5.689a1.966 1.966 0 0 0-2.276 0l-7.624 5.437c-1.518 1.082-3.56-.374-2.98-2.125l3.338-10.087a.034.034 0 0 0-.013-.038.035.035 0 0 0-.04 0l-16.9 12.049c-1.517 1.082-3.56-.374-2.98-2.126l6.453-19.494a.036.036 0 0 0-.013-.041.038.038 0 0 0-.044 0l-31.015 22.114c-1.518 1.083-3.56-.374-2.98-2.125l11.418-34.496a1.881 1.881 0 0 0-.703-2.125L.802 40.562c-1.518-1.083-.738-3.439 1.138-3.439l36.955-.001c.84 0 1.583-.53 1.842-1.314L52.158 1.313Z"/></svg>