<svg width="482" height="466" viewBox="0 0 482 466" fill="none" xmlns="http://www.w3.org/2000/svg">
<path d="M240.049 197.001C240.475 195.72 242.326 195.72 242.751 197.001L251.126 222.248C251.316 222.821 251.862 223.209 252.477 223.209L279.577 223.21C280.953 223.21 281.525 224.934 280.412 225.726L261.259 239.358C260.146 240.151 260.718 241.875 262.094 241.875L273.122 241.875C274.498 241.876 275.07 243.6 273.957 244.392L261.449 253.295C261.437 253.303 261.432 253.318 261.437 253.331C261.441 253.345 261.454 253.354 261.469 253.354L269.368 253.355C270.744 253.355 271.316 255.079 270.203 255.871L264.627 259.84C264.129 260.194 263.921 260.822 264.111 261.395L266.346 268.133C266.771 269.414 265.273 270.48 264.16 269.688L258.309 265.524C257.811 265.17 257.137 265.17 256.64 265.524L251.048 269.503C249.935 270.295 248.438 269.229 248.863 267.948L251.311 260.566C251.315 260.555 251.311 260.544 251.302 260.538C251.293 260.531 251.281 260.531 251.272 260.538L238.879 269.356C237.766 270.148 236.269 269.082 236.694 267.801L241.426 253.533C241.43 253.522 241.426 253.51 241.416 253.503C241.407 253.496 241.394 253.496 241.384 253.503L218.64 269.688C217.527 270.48 216.029 269.414 216.454 268.133L224.828 242.886C225.018 242.313 224.81 241.685 224.312 241.33L202.388 225.726C201.275 224.934 201.847 223.21 203.223 223.21L230.323 223.209C230.939 223.209 231.484 222.821 231.674 222.248L240.049 197.001Z" fill="#FFDC0B"/>
<g opacity="0.45" filter="url(#filter0_f_803_443)">
<path d="M240.049 196.961C240.475 195.68 242.326 195.68 242.751 196.961L251.126 222.208C251.316 222.781 251.862 223.169 252.477 223.169L279.577 223.17C280.953 223.17 281.525 224.894 280.412 225.686L261.259 239.318C260.146 240.111 260.718 241.835 262.094 241.835L273.122 241.835C274.498 241.836 275.07 243.56 273.957 244.352L261.449 253.255C261.437 253.263 261.432 253.278 261.437 253.291C261.441 253.305 261.454 253.314 261.469 253.314L269.368 253.315C270.744 253.315 271.316 255.039 270.203 255.831L264.627 259.8C264.129 260.154 263.921 260.782 264.111 261.355L266.346 268.093C266.771 269.374 265.273 270.44 264.16 269.648L258.309 265.484C257.811 265.13 257.137 265.13 256.64 265.484L251.048 269.463C249.935 270.255 248.438 269.189 248.863 267.908L251.311 260.526C251.315 260.515 251.311 260.504 251.302 260.498C251.293 260.491 251.281 260.491 251.272 260.498L238.879 269.316C237.766 270.108 236.269 269.042 236.694 267.761L241.426 253.493C241.43 253.482 241.426 253.47 241.416 253.463C241.407 253.456 241.394 253.456 241.384 253.463L218.64 269.648C217.527 270.44 216.029 269.374 216.454 268.093L224.828 242.846C225.018 242.273 224.81 241.645 224.312 241.29L202.388 225.686C201.275 224.894 201.847 223.17 203.223 223.17L230.323 223.169C230.939 223.169 231.484 222.781 231.674 222.208L240.049 196.961Z" fill="#FFDC0B"/>
</g>
<g opacity="0.15" filter="url(#filter1_f_803_443)">
<path d="M236.873 122.939C238.172 119.02 243.828 119.02 245.127 122.939L270.719 200.126C271.3 201.878 272.966 203.065 274.846 203.065L357.652 203.068C361.856 203.068 363.604 208.34 360.203 210.762L301.68 252.44C298.279 254.862 300.027 260.134 304.23 260.134L337.929 260.136C342.133 260.136 343.881 265.408 340.48 267.83L302.26 295.048C302.224 295.074 302.209 295.119 302.223 295.161C302.237 295.202 302.276 295.23 302.321 295.23L326.458 295.231C330.661 295.231 332.409 300.504 329.008 302.925L311.971 315.059C310.45 316.142 309.813 318.061 310.394 319.814L317.223 340.413C318.522 344.331 313.946 347.59 310.545 345.168L292.667 332.438C291.146 331.355 289.086 331.355 287.565 332.438L270.481 344.603C267.08 347.025 262.504 343.766 263.803 339.848L271.283 317.278C271.294 317.247 271.282 317.212 271.255 317.192C271.228 317.173 271.19 317.173 271.163 317.192L233.298 344.153C229.897 346.575 225.321 343.316 226.62 339.398L241.079 295.776C241.091 295.742 241.078 295.706 241.049 295.685C241.02 295.664 240.98 295.664 240.951 295.685L171.455 345.169C168.054 347.59 163.478 344.332 164.777 340.413L190.363 263.224C190.944 261.472 190.307 259.552 188.786 258.469L121.797 210.762C118.396 208.34 120.144 203.068 124.348 203.068L207.154 203.065C209.034 203.065 210.7 201.878 211.281 200.126L236.873 122.939Z" fill="#FFDC0B"/>
</g>
<defs>
<filter id="filter0_f_803_443" x="173.8" y="168" width="135.2" height="129.92" filterUnits="userSpaceOnUse" color-interpolation-filters="sRGB">
<feFlood flood-opacity="0" result="BackgroundImageFix"/>
<feBlend mode="normal" in="SourceGraphic" in2="BackgroundImageFix" result="shape"/>
<feGaussianBlur stdDeviation="14" result="effect1_foregroundBlur_803_443"/>
</filter>
<filter id="filter1_f_803_443" x="0.00012207" y="0" width="482" height="466" filterUnits="userSpaceOnUse" color-interpolation-filters="sRGB">
<feFlood flood-opacity="0" result="BackgroundImageFix"/>
<feBlend mode="normal" in="SourceGraphic" in2="BackgroundImageFix" result="shape"/>
<feGaussianBlur stdDeviation="60" result="effect1_foregroundBlur_803_443"/>
</filter>
</defs>
</svg>
