<svg width="108" height="101" viewBox="0 0 108 101" fill="none" xmlns="http://www.w3.org/2000/svg">
<path id="logo" d="M52.1581 1.31336C52.7379 -0.437786 55.2621 -0.437787 55.8419 1.31336L67.263 35.8084C67.5222 36.5916 68.2658 37.1218 69.1048 37.1218L106.06 37.1232C107.936 37.1232 108.716 39.4794 107.198 40.5617L81.0801 59.1878C79.5625 60.2702 80.3425 62.6263 82.2185 62.6264L97.2576 62.6269C99.1336 62.627 99.9136 64.9831 98.3959 66.0655L81.3393 78.2294C81.3232 78.2409 81.3165 78.2612 81.3226 78.2797C81.3288 78.2983 81.3464 78.3109 81.3663 78.3109L92.138 78.3113C94.0141 78.3114 94.7941 80.6675 93.2763 81.7499L85.6728 87.1722C84.9941 87.6562 84.7101 88.5141 84.9693 89.2973L88.0167 98.5031C88.5964 100.254 86.5543 101.71 85.0365 100.628L77.0578 94.9391C76.379 94.4551 75.46 94.4552 74.7812 94.9391L67.1567 100.376C65.6389 101.458 63.5968 100.002 64.1764 98.2506L67.5149 88.1642C67.5195 88.15 67.5144 88.1346 67.5022 88.1258C67.4899 88.1171 67.4733 88.117 67.4611 88.1258L50.5626 100.175C49.0449 101.257 47.0028 99.8007 47.5824 98.0495L54.0354 78.5548C54.0404 78.5398 54.0349 78.5233 54.0218 78.514C54.0088 78.5047 53.9912 78.5047 53.9782 78.514L22.9633 100.628C21.4455 101.711 19.4035 100.254 19.9831 98.5033L31.4015 64.0073C31.6608 63.2242 31.3768 62.3663 30.698 61.8822L0.801969 40.5617C-0.715718 39.4794 0.0642931 37.1232 1.94032 37.1232L38.8952 37.1218C39.7342 37.1218 40.4777 36.5916 40.737 35.8084L52.1581 1.31336Z" fill="#FFDC0B"/>
</svg>
